<svg xmlns="http://www.w3.org/2000/svg" width="18" height="19">
  <g fill="none" fill-rule="evenodd">
    <path fill="#2D2D2B" d="M2.96.035V12.88c0 .458-.414.83-.87.83-.46 0-.872-.372-.872-.83V5.255h.87V4.21H0v8.67c0 1.103.985 1.942 2.088 1.942h4.366l-1.805 3.55 7.46-3.55h3.73c1.1 0 1.91-.84 1.91-1.94V.034H2.96z"/>
    <path fill="#FFF" d="M16.708 12.88c0 .458-.412.898-.87.898h-3.993L7.25 15.964l1.112-2.186H3.908c.116-.348.095-.602.095-.897V1.08h12.705v11.8z"/>
    <path fill="#FF5606" d="M5.952 10.682h4.386V9.534H5.952m0-1.53h8.807v-1.15H5.95"/>
    <path fill="#2D2D2B" d="M5.952 5.324h8.807v-1.15H5.95"/>
  </g>
</svg>
