<?xml version="1.0" encoding="UTF-8"?>
<svg width="17px" height="19px" viewBox="0 0 17 19" version="1.1" xmlns="http://www.w3.org/2000/svg" xmlns:xlink="http://www.w3.org/1999/xlink">
    <g id="Screens" stroke="none" stroke-width="1" fill="none" fill-rule="evenodd">
        <g id="Publishers-responsive" transform="translate(-23.000000, -99.000000)" fill="#999999">
            <path d="M34.9591002,111.399061 C36.0993865,110.090767 36.794683,108.336463 36.794683,106.403756 C36.794683,102.330203 33.7075665,99 29.8973415,99 C26.0871166,99 23,102.330203 23,106.374022 C23,110.41784 26.1149284,113.748044 29.8973415,113.748044 C31.3435583,113.748044 32.7063395,113.242567 33.7631902,112.469484 L38.7137014,117.762128 C38.8805726,117.940532 39.0474438,118 39.2421268,118 C39.4368098,118 39.6314928,117.910798 39.7705521,117.762128 C40.0764826,117.435055 40.0764826,116.929577 39.7705521,116.602504 L34.9591002,111.399061 Z M29.9251534,112.112676 C26.9770961,112.112676 24.5574642,109.525822 24.5574642,106.374022 C24.5574642,103.222222 26.9770961,100.635368 29.9251534,100.635368 C32.8732106,100.635368 35.2928425,103.222222 35.2928425,106.374022 C35.2928425,109.525822 32.9010225,112.112676 29.9251534,112.112676 Z" id="Shape"></path>
        </g>
    </g>
</svg>