<?xml version="1.0" standalone="no"?>
<!DOCTYPE svg PUBLIC "-//W3C//DTD SVG 20010904//EN"
 "http://www.w3.org/TR/2001/REC-SVG-20010904/DTD/svg10.dtd">
<svg version="1.0" xmlns="http://www.w3.org/2000/svg"
 width="1536.000000pt" height="1536.000000pt" viewBox="0 0 1536.000000 1536.000000"
 preserveAspectRatio="xMidYMid meet">
<metadata>
Created by potrace 1.11, written by Peter Selinger 2001-2013
</metadata>
<g transform="translate(0.000000,1536.000000) scale(0.100000,-0.100000)"
fill="#000000" stroke="none">
<path d="M3348 9438 c-3 -4591 -4 -4755 -21 -4808 -91 -271 -332 -450 -607
-453 -112 -1 -178 13 -277 59 -164 74 -283 204 -345 374 l-23 65 -3 2848 -2
2847 320 0 320 0 0 380 0 380 -765 0 -765 0 3 -3267 2 -3268 27 -105 c14 -58
38 -136 52 -173 191 -501 671 -867 1233 -942 90 -12 380 -15 1756 -15 906 0
1647 -3 1647 -7 0 -5 -295 -586 -654 -1293 -360 -707 -651 -1286 -648 -1288 4
-1 1232 581 2730 1293 l2723 1295 1412 0 c1478 0 1508 1 1682 45 516 130 880
518 1007 1070 l23 100 2 4808 3 4807 -5415 0 -5415 0 -2 -4752z m10062 -355
c0 -4772 4 -4414 -60 -4551 -82 -176 -215 -300 -398 -371 l-67 -26 -1520 -3
-1520 -3 -1675 -798 c-921 -439 -1676 -797 -1678 -796 -1 1 180 359 402 796
l404 794 -1630 3 c-1479 2 -1630 4 -1624 18 17 44 46 179 55 259 8 63 11 1441
11 4558 l0 4467 4650 0 4650 0 0 -4347z"/>
<path d="M5540 10740 l0 -420 3225 0 3225 0 0 420 0 420 -3225 0 -3225 0 0
-420z"/>
<path d="M5540 8780 l0 -420 3225 0 3225 0 0 420 0 420 -3225 0 -3225 0 0
-420z"/>
<path d="M5540 6810 l0 -420 1605 0 1605 0 0 420 0 420 -1605 0 -1605 0 0
-420z"/>
</g>
</svg>
