<svg xmlns="http://www.w3.org/2000/svg" width="175" height="40" xmlns:xlink="http://www.w3.org/1999/xlink"><defs><path id="a" d="M.33784615.27261538h4.70461538v19.2375385H.33784615z"/><path id="c" d="M0 .5396923h174.480615v39.9027692H0z"/><path id="e" d="M6.42646154 0v27.9015385c0 .9938461-.896 1.8030769-1.88984616 1.8030769-.99384615 0-1.89046153-.8092308-1.89046153-1.8030769V11.336H4.536V9.06892308H0V27.9015385c0 2.3956923 2.13846154 4.2178461 4.53476923 4.2178461h9.48307697l-3.9212308 7.7070769 16.2036923-7.7070769h8.1009231c2.3963077 0 4.156923-1.8221538 4.156923-4.2178461V0H6.42646154z"/><path id="g" d="M0 .5396923h174.480615v39.9027692H0z"/><path id="i" d="M28.2904615 26.0553846c0 .9938462-.8947692 1.9501539-1.8886153 1.9501539h-8.675077l-9.9784615 4.7470769 2.4141538-4.7470769H.4886154c.2516923-.7563077.20615383-1.3076923.20615383-1.9501539V.42092308H28.2904615V26.0553846z"/><path id="k" d="M0 .5396923h174.480615v39.9027692H0z"/><path id="m" d="M.01353846.56184615H9.5396923v3.36H.01353847z"/><path id="o" d="M0 .5396923h174.480615v39.9027692H0z"/><path id="q" d="M.01353846.304h19.128v3.36h-19.128z"/><path id="s" d="M0 .5396923h174.480615v39.9027692H0z"/><path id="u" d="M.01353846.57723077h19.128v3.36h-19.128z"/><path id="w" d="M0 .5396923h174.480615v39.9027692H0z"/><path id="y" d="M112.966154 19.5316923c.457846.5033846.967384.944 1.528 1.3218462.480615.3316923 1.044923.6350769 1.691692.9101538.646769.2750769 1.353231.4123077 2.12.4123077.344 0 .664-.0344615.961231-.1033846.297846-.0683077.555077-.1772308.772923-.3255385.217846-.1489231.389538-.3353846.515077-.5581538.126154-.2227693.189538-.4836923.189538-.7815385 0-.3206154-.134769-.6036923-.403692-.8498461-.268923-.2461539-.627077-.4781539-1.073231-.696-.446154-.2172308-.952615-.4344616-1.519384-.6523077-.56677-.2178462-1.144616-.4547693-1.734154-.7126154-.589539-.2578462-1.167385-.5470769-1.734154-.8670769-.566769-.3206154-1.073231-.6953847-1.519385-1.1249231-.446769-.4289231-.804923-.9212308-1.07323-1.4763077-.269539-.5550769-.403693-1.1932308-.403693-1.9144615 0-.8929231.189539-1.6683077.56677-2.32676928.377846-.65784615.884923-1.20184615 1.52-1.63076923.635076-.42953847 1.373538-.75015385 2.215384-.96184616.841231-.2116923 1.725539-.31753846 2.652923-.31753846.400616 0 .835693.02584615 1.304616.07753846.470153.05107692.939077.1316923 1.408615.24.468923.10892308.918154.25784615 1.347077.44676923.429538.18892308.809846.42092308 1.141538.6953846.332308.27446155.59877.60123078.79877.97846155.2.37723077.300307.80738458.300307 1.28799998v1.872h-3.948923v-.8935384c0-.2061539-.072-.3889231-.215384-.5495385-.14277-.16-.323077-.2916923-.540923-.3950769-.217847-.1033846-.457847-.1803077-.721231-.2313846-.263385-.0516923-.520616-.0769231-.772923-.0769231-.789539 0-1.43077.1341538-1.923077.4030769-.492308.2695385-.737846.6726154-.737846 1.2104615 0 .355077.13723.6609231.412307.9187693.274462.2572307.635077.4953846 1.081846.7126154.446154.2178461.952616.428923 1.519385.6350769.566769.2061538 1.150769.4264615 1.752.6609231.601231.2344615 1.184615.504 1.751385.8073846.566769.3033846 1.07323.664 1.52 1.0818461.446769.4178462.806769.904 1.081846 1.4596923.274461.555077.411692 1.2049231.411692 1.9489231 0 .8473846-.177231 1.608-.531692 2.2836923-.355077.6756923-.841231 1.2504616-1.459692 1.7261539-.618462.4744615-1.347693.8412307-2.189539 1.0984615-.841231.2578462-1.748923.3864615-2.721846.3864615-.617846 0-1.195692-.0455384-1.733539-.1372307-.538461-.0916923-1.038769-.2123077-1.502153-.3606154-.464-.1489231-.890462-.3181539-1.279385-.5064615-.389538-.1895385-.738462-.3864616-1.047385-.5926154-.732307-.4695385-1.362461-1.0073846-1.888615-1.6141539l2.110154-2.9193846zm-14.5606155-7.6584615c0-.515077-.2578462-.7723077-.7729231-.7723077h-1.408V7.30584615H100.312c.789538 0 1.384615.1716923 1.785231.51507693.400615.3433846.601231.89292307.601231 1.64861538v1.06461534c0 .1716924-.003077.3261539-.008616.4633847-.006154.1372307-.014154.2516923-.025846.3433846-.011692.1144615-.022769.2178461-.034462.3089231h.068308c.206154-.6412308.489846-1.2418462.849846-1.80307697.361231-.56061538.784-1.0473846 1.27077-1.4596923.486153-.4116923 1.03323-.73846155 1.64-.97846155C107.064615 7.168 107.711385 7.048 108.398154 7.048c.091077 0 .186461.00246154.283692.00861538.096616.00615385.185846.01415385.265846.02584616.091693.0116923.177846.02276923.257846.03446154v4.39569232c-.091076-.0116923-.194461-.0227692-.308923-.0344616-.091692-.0116923-.206153-.0203076-.344-.0258461-.13723-.0055385-.286153-.0086154-.446769-.0086154-.469538 0-.950154.0713846-1.442461.2147692-.492308.1433847-.95877.3661539-1.39877.6695385-.44123.3033846-.838769.6923077-1.19323 1.1673846-.355077.4750769-.635077 1.0443077-.841231 1.7083077-.263385.9156923-.395077 1.8886154-.395077 2.9187692v7.1089231h-4.4301539V11.8732308h.0006154zm-8.8941539 2.0781538c-.0233846-.5384615-.1261538-1.0301538-.3095384-1.4763077C89.0184615 12.0283077 88.776 11.648 88.472 11.3329231c-.3033846-.3144616-.6553846-.5606154-1.056-.7384616-.4006154-.1772307-.8301538-.2658461-1.288-.2658461-1.1446154 0-2.1003077.3206154-2.8676923.9612308-.7667692.6412307-1.2763077 1.528-1.528 2.6615384h7.7790769zm-12.4836923 2.3181539c0-1.3852308.2227692-2.6529231.6695385-3.8036923.4467692-1.1507693 1.0701538-2.1409231 1.8713846-2.97046158.8018461-.83015385 1.76-1.47384616 2.8763077-1.9316923 1.1163077-.45784617 2.344-.68676924 3.6830769-.68676924 1.2818462 0 2.4184615.2203077 3.408.66092307.9901538.4406154 1.8203077 1.04492308 2.4898462 1.8116923.6701538.76738465 1.1790769 1.66830775 1.528 2.70461535.348923 1.0356924.5243076 2.1489231.5243076 3.3396924 0 .1261538-.0061538.2830769-.0172307.4726153-.0116923.1889231-.0227693.3692308-.0344616.5409231-.0227692.2055385-.04.4178462-.0516923.6350769H81.5950769c.08.7895385.28 1.4849231.6012308 2.0861539.3206154.6012308.7212308 1.1021538 1.2018461 1.5021538.4806154.4006154 1.027077.7046154 1.6393847.9101539.612923.2061538 1.2566153.3089231 1.9323077.3089231.7212307 0 1.3876923-.1027693 2.0006153-.3089231.6123077-.2061539 1.1415385-.4350769 1.5876923-.6867693.5267693-.2972307 1.008-.6295384 1.443077-.9956923l1.8713846 3.0904616c-.5729231.5150769-1.2190769.9667692-1.9403077 1.3563077-.6295385.3433846-1.3846154.6547692-2.2664615.936-.8818462.2812307-1.8836924.420923-3.0055385.420923-1.488 0-2.8270769-.2486153-4.0172308-.7470769-1.1907692-.4978461-2.2006154-1.176-3.0307692-2.0350769-.8301539-.8584615-1.4683077-1.8572308-1.9144615-2.9956923-.4467693-1.1396923-.6701539-2.3446154-.6701539-3.6147692zm-41.1932308 3.588923c0-.4233846.0947693-.784.283077-1.0818461.188923-.2978462.4406153-.552.7556923-.7643077.3150769-.2116923.6787692-.3803077 1.0904615-.5064615.4116923-.1261539.8412308-.2233847 1.2873846-.2923077.4467693-.0683077.8929231-.1144616 1.3396923-.1372308.4467693-.0227692.864-.0344615 1.2535385-.0344615h.7723077v.4123076c0 .5495385-.0996923 1.1015385-.3003077 1.6566154-.2.555077-.48 1.0621539-.8412308 1.5193846-.3606154.4578462-.7926154.8307693-1.296 1.1163077-.5033846.2855385-1.0529231.4289231-1.6486154.4289231-.4578461 0-.8553846-.0658461-1.1926153-.1975384-.3378462-.1316924-.6184616-.3027693-.8418462-.515077-.2233846-.2116923-.3889231-.4578461-.4978462-.7378461-.108923-.28-.1636923-.5692308-.1636923-.8664616zM57.3156923 7.26461538v-4.8523077l-4.3618461 2.06707694v2.82646153h-2.4215385v3.53723075h2.3187692V18.656c0 .9956923.1255385 1.8572308.3772308 2.584.2516923.7267692.584 1.3396923.9963077 1.8369231.4116923.4978461.8843077.8984615 1.4166154 1.2018461.5316923.3033846 1.0726154.5378462 1.6227692.7046154.5495385.1661539 1.0898462.2769231 1.6227692.3347692.5323077.0572308 1.0043077.0861539 1.4166154.0861539.4233846 0 .7556923-.0172308.9956923-.0516923.1378462-.0116923.2633846-.0289231.3778462-.0516923v-3.8978462c-.0683077.0116923-.1427693.0227693-.2233846.0344616-.0683077.0116923-.1513847.0203077-.2486154.0258461-.0972308.0061539-.2086154.0086154-.3347693.0086154-.308923 0-.6670769-.0369231-1.0732307-.1113846-.4061539-.0744616-.7956923-.232-1.1673846-.4726154-.3716923-.2406154-.6836923-.5809231-.936-1.0215385-.2523077-.4406153-.3772308-1.0332307-.3772308-1.7772307v-7.2123077h8.5513846v7.7796923c0 .9956923.1255385 1.8572308.3772308 2.584.2516923.7267692.584 1.3396923.9956923 1.8369231.4123077.4978461.8849231.8984615 1.4166154 1.2018461.5323077.3033846 1.0732307.5378462 1.6227692.7046154.5501538.1661538 1.0904615.2769231 1.6233846.3347692.5316923.0572308 1.0043077.0861539 1.4166154.0861539.4233846 0 .7556923-.0172308.9956923-.0516923.1378462-.0116923.2633846-.0289231.3778462-.0516923v-3.8984616c-.0689231.0116923-.1427693.0227693-.2233847.0344616-.0683076.0116923-.1513846.0203077-.2486153.0258461-.0972308.0061539-.2092308.0086154-.3347693.0086154-.3095384 0-.6670769-.0369231-1.0732307-.1113846-.4061539-.0744616-.7956923-.232-1.1673847-.4726154-.3716923-.2406154-.6836923-.5809231-.936-1.0215385-.2523076-.4406153-.3778461-1.0332307-.3778461-1.7772307v-7.2455385h4.0873846V7.30646154h-4.0873846V2.4123077L65.9710769 4.4793846V7.264h-8.6553846v.00061538zM31.336 20.064c0-.9384615.1944615-1.7403077.584-2.4043077.3895385-.6633846.8984615-1.2215385 1.528-1.6738461.6295385-.4523077 1.3366154-.8098462 2.1206154-1.0732308.784-.2633846 1.5710769-.4633846 2.3606154-.6012308.7901538-.1372308 1.5396923-.2258461 2.2492307-.2664615.7095385-.04 1.3107693-.0603077 1.803077-.0603077h.5667692v-.1544616c0-.6412307-.0652308-1.1846153-.1969231-1.6313846-.1316923-.4467692-.3323077-.8067692-.6012308-1.0818461-.2695384-.2744616-.6123076-.4750769-1.0307692-.6012308-.4178461-.1261538-.9126154-.1889231-1.4849231-.1889231-.2061538 0-.4436923.0172308-.7126153.051077-.2689231.0338461-.5292308.0941538-.7815385.1803076-.2523077.0861539-.4633846.2061539-.6350769.3606154-.1716923.1544616-.2578462.352-.2578462.592v.9618462h-4.1550769v-1.9064616c0-.5606153.12-1.04123072.3606154-1.4424615.2406154-.40061538.552-.7353846.936-1.00430768.3833846-.26892308.8153846-.48676924 1.296-.6523077.4806154-.16615384.9643077-.2923077 1.4510769-.37784615.4867692-.08615385.9526154-.14338462 1.3993846-.1716923.4467692-.0283077.8246154-.04307693 1.1335385-.04307693 1.4996923 0 2.7476923.1833846 3.7433846.54953846.9956923.36615385 1.7883077.87015385 2.3778461 1.51138462.5895385.64123076 1.0073847 1.39630768 1.2535385 2.26646158.2455385.8701538.3692308 1.8086153.3692308 2.816v6.6793846c0 .2406154.0658461.428923.1975384.5667692.1316923.1372308.323077.2055385.5753847.2055385h1.408v3.7606153H45.176c-.4123077 0-.7643077-.0516923-1.056-.1544615-.2923077-.1033846-.5267692-.2461538-.7046154-.4295385-.1772308-.1827692-.3089231-.3950769-.3950769-.6350769-.0861539-.24-.1286154-.4923077-.1286154-.7556923v-.3089231c0-.0916923.0055385-.1716923.0166154-.2406153 0-.0806154.0061538-.1544616.0172308-.2233847h-.0683077c-.2978462.6067693-.6929231 1.1396923-1.1852308 1.5975385-.2061538.1938462-.4492308.3858462-.7298462.5753846-.2806153.1889231-.5956923.3575385-.9446153.5064616-.3489231.1483076-.7353847.268923-1.1587693.3606153-.4233846.091077-.8873846.1372308-1.3913846.1372308-.8012308 0-1.568-.1230769-2.3009231-.3692308-.7323077-.2461538-1.3821538-.6067692-1.948923-1.0818461-.5667693-.4750769-1.019077-1.0621539-1.3569231-1.76-.336-.696-.5046154-1.4916923-.5046154-2.3846154zM.2486154 21.3316923h1.07999998c.2516923 0 .43692308-.0683077.55753847-.2055385.12-.1372307.1913846-.3255384.21415384-.5661538L3.72923076.2916923H8.496l5.1273846 11.8658462c.1489231.3661538.2947692.7433846.4375385 1.1316923.1427692.3883077.2769231.748923.4030769 1.08.1372308.3772307.2689231.7544615.3944615 1.1316923h.0683077c.1261539-.3772308.2572308-.7544616.3944616-1.1316923.1261538-.3316923.2572307-.6916923.3944615-1.08.1372308-.3889231.2861539-.7661539.4461539-1.1316923L21.2892308.2916923h4.7673846L27.6683077 20.56c.0227692.2406154.0972308.4289231.2227692.5661538.1255385.1372308.3083077.2055385.5489231.2055385h1.0972308v3.8929231h-3.9784616c-.4116923 0-.76-.0461539-1.0455384-.1378462-.2861539-.0910769-.5175385-.2344615-.6947693-.4283077-.1772307-.1938461-.3144615-.44-.4116923-.7372307-.0972307-.2966154-.1630769-.6572308-.196923-1.0806154l-.84-11.0941539c-.0344616-.4116923-.0572308-.8461538-.0683077-1.3033846-.0116923-.45723075-.0116923-.87446152 0-1.25169228 0-.44615385.0116923-.88615385.0344615-1.3206154h-.0683077c-.1489231.48-.2972308.9489231-.4461538 1.40615386-.1261539.4-.2713847.82276922-.4375385 1.26892312-.1655385.4461538-.3286154.8461538-.4886154 1.2006153l-4.1495384 9.1907693h-3.7212308l-4.1323077-9.1907693c-.16-.3544615-.32307693-.7575384-.4886154-1.2086153-.16553845-.4516924-.3113846-.8775385-.43692307-1.2775385-.1483077-.46892308-.29723077-.94338462-.44615385-1.42338462h-.0683077c.01169232.43446154.02276924.88061538.03446155 1.33784615 0 .3883077-.00246154.8116923-.00861538 1.26892307-.00553847.4572308-.02584616.8916923-.0603077 1.3033846L6.6116923 22.8412308c-.03446153.4233846-.10276922.7833846-.20553845 1.0806154-.10276923.2972307-.24553847.5433846-.42892308.7372307-.18276923.1938462-.4203077.3372308-.71138462.4283077-.29107692.0910769-.64307692.1378462-1.05476923.1378462H.24984615v-3.8935385H.2486154z"/><path id="A" d="M0 .5396923h174.480615v39.9027692H0z"/></defs><g fill="none" fill-rule="evenodd"><g><g transform="translate(1.846 11.077)"><mask id="b" fill="#fff"><use xlink:href="#a"/></mask><g mask="url(#b)"><g transform="translate(-1.846 -11.692)"><mask id="d" fill="#fff"><use xlink:href="#c"/></mask><path fill="#FFF" fill-rule="nonzero" d="M1.7643077 11.5446154h5.54461537v20.0769231H1.7643077z" mask="url(#d)"/></g></g></g><g><mask id="f" fill="#fff"><use xlink:href="#e"/></mask><g mask="url(#f)"><g transform="translate(0 -.615)"><mask id="h" fill="#fff"><use xlink:href="#g"/></mask><path fill="#2E2D2C" fill-rule="nonzero" d="M-.4203077.19507692h39.3987692v40.6664615H-.4203077z" mask="url(#h)"/></g></g></g><g transform="translate(8 1.846)"><mask id="j" fill="#fff"><use xlink:href="#i"/></mask><g mask="url(#j)"><g transform="translate(-8 -2.462)"><mask id="l" fill="#fff"><use xlink:href="#k"/></mask><path fill="#FFF" fill-rule="nonzero" d="M8.0683077 2.46276923h28.6418462v33.1704615H8.0683077z" mask="url(#l)"/></g></g></g><g transform="translate(12.923 19.692)"><mask id="n" fill="#fff"><use xlink:href="#m"/></mask><g mask="url(#n)"><g transform="translate(-12.923 -20.308)"><mask id="p" fill="#fff"><use xlink:href="#o"/></mask><path fill="#F15922" fill-rule="nonzero" d="M12.5169231 20.4492308h10.3661538v4.2H12.5169231z" mask="url(#p)"/></g></g></g><g transform="translate(12.923 14.154)"><mask id="r" fill="#fff"><use xlink:href="#q"/></mask><g mask="url(#r)"><g transform="translate(-12.923 -14.77)"><mask id="t" fill="#fff"><use xlink:href="#s"/></mask><path fill="#F15922" fill-rule="nonzero" d="M12.5169231 14.6535385h19.9686154v4.2H12.5169231z" mask="url(#t)"/></g></g></g><g transform="translate(12.923 8)"><mask id="v" fill="#fff"><use xlink:href="#u"/></mask><g mask="url(#v)"><g transform="translate(-12.923 -8.615)"><mask id="x" fill="#fff"><use xlink:href="#w"/></mask><path fill="#2E2D2C" fill-rule="nonzero" d="M12.5169231 8.7723077h19.9686154v4.20061537H12.5169231z" mask="url(#x)"/></g></g></g><g transform="translate(49.23 3.077)"><mask id="z" fill="#fff"><use xlink:href="#y"/></mask><g mask="url(#z)"><g transform="translate(-49.23 -3.692)"><mask id="B" fill="#fff"><use xlink:href="#A"/></mask><path fill="#2E2D2C" fill-rule="nonzero" d="M49.0596923 3.5643077h125.8v26.2098462h-125.8z" mask="url(#B)"/></g></g></g><path fill="#FFF" d="M85.0652308 22.9353846c0-.4233846.0947692-.784.2830769-1.0818461.1889231-.2978462.4406154-.552.7556923-.7643077.3150769-.2116923.6787692-.3803077 1.0904615-.5064616.4116923-.1261538.8412308-.2233846 1.2873847-.2923077.4467692-.0683077.892923-.1144615 1.3396923-.1372307.4467692-.0227693.864-.0344616 1.2535384-.0344616h.7723077v.4123077c0 .5495385-.0996923 1.1015385-.3003077 1.6566154-.2.5550769-.48 1.0621539-.8412307 1.5193846-.3606154.4578462-.7926154.8307693-1.296 1.1163077-.5033847.2855385-1.0529231.4289231-1.6486154.4289231-.4578462 0-.8553846-.0658462-1.1926154-.1975385-.3378462-.1316923-.6184616-.3027692-.8418462-.5150769-.2233846-.2116923-.388923-.4578461-.4978461-.7378461-.1089231-.28-.1636923-.5692308-.1636923-.8664616z"/></g></g></svg>