<?xml version="1.0" encoding="UTF-8"?>
<svg width="120px" height="34px" viewBox="0 0 120 34" version="1.1" xmlns="http://www.w3.org/2000/svg" xmlns:xlink="http://www.w3.org/1999/xlink">
    <g id="Screens" stroke="none" stroke-width="1" fill="none" fill-rule="evenodd">
        <g id="Menu-lateral-desktop" transform="translate(-279.000000, -14.000000)">
            <g id="Group" transform="translate(279.000000, 14.000000)">
                <g id="logotipo" transform="translate(39.066511, 2.450408)" fill="#2D2D2B">
                    <path d="M2.00135486,8.7856246 C2.00135486,8.30110052 1.74312216,8.07480613 1.29112921,8.07480613 L-3.42938512e-05,8.07480613 L-3.42938512e-05,4.58424104 L3.77674754,4.58424104 C5.22909214,4.58424104 5.9393178,5.2627808 5.9393178,6.42653142 L5.9393178,6.91105551 C5.9393178,7.26646474 5.90708158,7.62187398 5.90708158,7.62187398 L5.97155402,7.62187398 C6.74625212,6.00622137 8.71540506,4.1962097 11.2973891,4.1962097 C13.7830075,4.1962097 15.397219,5.35961694 16.1071018,7.58993866 L16.1715742,7.58993866 C17.0433239,5.8122057 19.1736579,4.1962097 21.7882211,4.1962097 C25.2097187,4.1962097 27.1788716,6.13533622 27.1788716,10.4665214 L27.1788716,16.8982267 C27.1788716,17.3508155 27.4371043,17.6093886 27.8887543,17.6093886 L29.1476816,17.6093886 L29.1476816,21.0680183 L25.2741911,21.0680183 C23.7251379,21.0680183 23.0793846,20.4214139 23.0793846,18.8699753 L23.0793846,11.2422407 C23.0793846,9.36732822 22.7244433,7.94534789 20.8197628,7.94534789 C18.7861374,7.94534789 17.3337928,9.65852342 16.8817999,11.7267648 C16.6880396,12.3733692 16.6235672,13.0522524 16.6235672,13.8279717 L16.6235672,21.0680183 L12.5240802,21.0680183 L12.5240802,11.2422407 C12.5240802,9.46450775 12.2658475,7.94534789 10.2966945,7.94534789 C8.23117588,7.94534789 6.84296078,9.65852342 6.32649538,11.7590435 C6.16531428,12.4056479 6.06826268,13.0845311 6.06826268,13.8279717 L6.06826268,21.0680183 L2.00135486,21.0680183 L2.00135486,8.7856246 Z" id="Fill-8"></path>
                    <path d="M56.3249757,8.7856246 C56.3249757,8.30110052 56.066743,8.07480613 55.615093,8.07480613 L54.3239295,8.07480613 L54.3239295,4.58424104 L58.0681322,4.58424104 C59.5204768,4.58424104 60.2629387,5.19822337 60.2629387,6.58792499 L60.2629387,7.55765994 C60.2629387,8.17164227 60.1984662,8.59195233 60.1984662,8.59195233 L60.2629387,8.59195233 C61.0054005,6.23217236 62.9745535,4.35760327 65.4920651,4.35760327 C65.8476923,4.35760327 66.234527,4.42216069 66.234527,4.42216069 L66.234527,8.46283747 C66.234527,8.46283747 65.8151132,8.39793666 65.2341753,8.39793666 C63.4910189,8.39793666 61.4899727,9.39995033 60.7475108,11.856223 C60.5211714,12.6645644 60.3922265,13.5693986 60.3922265,14.5387901 L60.3922265,21.0680183 L56.3249757,21.0680183 L56.3249757,8.7856246 Z" id="Fill-9"></path>
                    <path d="M69.6878492,15.8318273 C69.6878492,15.8318273 71.785947,18.2561647 74.5942705,18.2561647 C75.8531978,18.2561647 76.8216562,17.7386751 76.8216562,16.6398253 C76.8216562,14.3126674 68.138453,14.3449462 68.138453,9.01209068 C68.138453,5.71519787 71.1083005,4.19603801 74.5297981,4.19603801 C76.7568408,4.19603801 80.3076261,4.93947858 80.3076261,7.62204567 L80.3076261,9.3352212 L76.6923683,9.3352212 L76.6923683,8.5272232 C76.6923683,7.75150392 75.5304927,7.36381597 74.6265067,7.36381597 C73.1741621,7.36381597 72.1731246,7.88061877 72.1731246,8.85035373 C72.1731246,11.4360847 80.9208002,10.9189385 80.9208002,16.4135309 C80.9208002,19.5164081 78.1772921,21.4555346 74.5942705,21.4555346 C70.0753697,21.4555346 67.7512754,18.5143944 67.7512754,18.5143944 L69.6878492,15.8318273 Z" id="Fill-10"></path>
                    <path d="M39.8394756,17.6094916 C38.7098362,17.6094916 36.6943865,17.2214602 36.6943865,14.5066144 L36.6943865,7.96193366 L40.1237717,7.96193366 L40.1237717,4.528028 L36.6943865,4.528028 L36.6943865,0.0179363227 L36.5966491,0.0639506584 L32.5791244,1.99380563 L32.5791244,4.528028 L30.1785548,4.528028 L30.1785548,7.96193366 L32.5791244,7.96193366 L32.5791244,15.0237606 C32.5791244,20.5506318 37.0232646,21.2295149 39.3151226,21.2295149 C40.0575845,21.2295149 40.4667102,21.1326788 40.4667102,21.1326788 L40.4667102,17.5449342 C40.4667102,17.5449342 40.2911256,17.6094916 39.8394756,17.6094916" id="Fill-11"></path>
                    <path d="M51.8423236,17.6094916 C50.7126841,17.6094916 48.6972345,17.2214602 48.6972345,14.5066144 L48.6972345,7.96193366 L52.1266196,7.96193366 L52.1266196,4.528028 L48.6972345,4.528028 L48.6972345,0.0179363227 L48.599497,0.0639506584 L44.5819723,1.99380563 L44.5819723,4.528028 L42.1814027,4.528028 L42.1814027,7.96193366 L44.5819723,7.96193366 L44.5819723,15.0237606 C44.5819723,20.5506318 49.0261125,21.2295149 51.3179706,21.2295149 C52.0604325,21.2295149 52.4695581,21.1326788 52.4695581,21.1326788 L52.4695581,17.5449342 C52.4695581,17.5449342 52.2939736,17.6094916 51.8423236,17.6094916" id="Fill-12"></path>
                </g>
                <g id="ícone">
                    <path d="M5.35589265,0.0627950302 L5.35589265,23.3161663 C5.35589265,24.1447206 4.6092182,24.8186492 3.78063011,24.8186492 C2.95204201,24.8186492 2.20536756,24.1447206 2.20536756,23.3161663 L2.20536756,9.51039236 L3.78063011,9.51039236 L3.78063011,7.62087289 L0,7.62087289 L0,23.3161663 C0,25.3124436 1.78225204,26.8309875 3.77936989,26.8309875 L11.6827771,26.8309875 L8.41505251,33.2547238 L21.9194632,26.8309875 L28.6707235,26.8309875 C30.6678413,26.8309875 32.1353559,25.3124436 32.1353559,23.3161663 L32.1353559,0.0627950302 L5.35589265,0.0627950302 Z" id="Fill-1" fill="#2D2D2B"></path>
                    <path d="M30.2450408,23.3161663 C30.2450408,24.1447206 29.4996266,24.941468 28.6707235,24.941468 L21.4408985,24.941468 L13.1247725,28.8974919 L15.1370128,24.941468 L7.07450408,24.941468 C7.284014,24.3116282 7.2462077,23.8518451 7.2462077,23.3161663 L7.2462077,1.9523145 L30.2450408,1.9523145 L30.2450408,23.3161663 Z" id="Path" fill="#FFFFFF"></path>
                    <polygon id="Fill-7" fill="#FF5606" points="10.7747958 19.3360825 18.714119 19.3360825 18.714119 17.2576111 10.7747958 17.2576111"></polygon>
                    <polygon id="Fill-6" fill="#FF5606" points="10.7747958 14.4863159 26.7164527 14.4863159 26.7164527 12.4078445 10.7747958 12.4078445"></polygon>
                    <polygon id="Fill-4" fill="#2D2D2B" points="10.7747958 9.63654927 26.7164527 9.63654927 26.7164527 7.55807786 10.7747958 7.55807786"></polygon>
                </g>
            </g>
        </g>
    </g>
</svg>