<?xml version="1.0" encoding="UTF-8"?>
<svg width="19px" height="21px" viewBox="0 0 19 21" version="1.1" xmlns="http://www.w3.org/2000/svg" xmlns:xlink="http://www.w3.org/1999/xlink">
    <!-- Generator: Sketch 41.2 (35397) - http://www.bohemiancoding.com/sketch -->
    <title>newspaper copy</title>
    <desc>Created with Sketch.</desc>
    <defs>
        <path d="M2.94040367,14.0390119 C2.94040367,14.5306286 2.59509001,14.9303718 2.11341514,14.9303718 C1.63155648,14.9303718 1.2864266,14.5306286 1.2864266,14.0390119 L1.2864266,5.81240142 L2.20530275,5.81240142 L2.20530275,4.6874205 L0,4.6874205 L0,14.0390119 C0,15.2234293 1.08960333,16.1247265 2.25051146,16.1247265 L6.84489219,16.1247265 L4.94539142,19.9359744 L12.7955341,16.1247265 L16.7202379,16.1247265 C17.881146,16.1247265 18.7450734,15.2234293 18.7450734,14.0390119 L18.7450734,0 L2.94040367,0 L2.94040367,14.0390119 Z" id="path-1"></path>
        <mask id="mask-2" maskContentUnits="userSpaceOnUse" maskUnits="objectBoundingBox" x="0" y="0" width="18.7450734" height="19.9359744" fill="white">
            <use xlink:href="#path-1"></use>
        </mask>
    </defs>
    <g id="Web" stroke="none" stroke-width="1" fill="none" fill-rule="evenodd">
        <g id="Phone" transform="translate(-125.000000, -17.000000)">
            <g id="Group-9" transform="translate(125.000000, 15.000000)">
                <g id="newspaper-copy" transform="translate(0.000000, 2.500000)">
                    <use id="Fill-8" stroke="#FFFFFF" mask="url(#mask-2)" stroke-width="2.6" xlink:href="#path-1"></use>
                    <path d="M6.5245283,3.60544218 L15.2238994,3.60544218 L15.2238994,5.09003601 L6.5245283,5.09003601 L6.5245283,3.60544218 Z M6.5245283,7.31692677 L15.2238994,7.31692677 L15.2238994,8.80152061 L6.5245283,8.80152061 L6.5245283,7.31692677 Z M6.5245283,11.0284114 L15.2238994,11.0284114 L15.2238994,12.5130052 L6.5245283,12.5130052 L6.5245283,11.0284114 Z" id="Combined-Shape" fill="#FFFFFF"></path>
                </g>
            </g>
        </g>
    </g>
</svg>