<?xml version="1.0" encoding="UTF-8"?>
<svg width="17px" height="19px" viewBox="0 0 17 19" version="1.1" xmlns="http://www.w3.org/2000/svg" xmlns:xlink="http://www.w3.org/1999/xlink">
    <!-- Generator: Sketch 41.2 (35397) - http://www.bohemiancoding.com/sketch -->
    <title>loupe</title>
    <desc>Created with Sketch.</desc>
    <defs></defs>
    <g id="Screens" stroke="none" stroke-width="1" fill="none" fill-rule="evenodd">
        <g id="Publishers" transform="translate(-468.000000, -183.000000)" fill="#FFFFFF">
            <path d="M479.9591,195.399061 C481.099387,194.090767 481.794683,192.336463 481.794683,190.403756 C481.794683,186.330203 478.707566,183 474.897342,183 C471.087117,183 468,186.330203 468,190.374022 C468,194.41784 471.114928,197.748044 474.897342,197.748044 C476.343558,197.748044 477.706339,197.242567 478.76319,196.469484 L483.713701,201.762128 C483.880573,201.940532 484.047444,202 484.242127,202 C484.43681,202 484.631493,201.910798 484.770552,201.762128 C485.076483,201.435055 485.076483,200.929577 484.770552,200.602504 L479.9591,195.399061 Z M474.925153,196.112676 C471.977096,196.112676 469.557464,193.525822 469.557464,190.374022 C469.557464,187.222222 471.977096,184.635368 474.925153,184.635368 C477.873211,184.635368 480.292843,187.222222 480.292843,190.374022 C480.292843,193.525822 477.901022,196.112676 474.925153,196.112676 Z" id="Shape"></path>
        </g>
    </g>
</svg>
