<?xml version="1.0" encoding="UTF-8"?>
<svg width="14px" height="14px" viewBox="0 0 14 14" version="1.1" xmlns="http://www.w3.org/2000/svg" xmlns:xlink="http://www.w3.org/1999/xlink">
    <!-- Generator: Sketch 41.2 (35397) - http://www.bohemiancoding.com/sketch -->
    <title>loupe</title>
    <desc>Created with Sketch.</desc>
    <defs></defs>
    <g id="Menu---Publishers" stroke="none" stroke-width="1" fill="none" fill-rule="evenodd">
        <g transform="translate(-30.000000, -144.000000)" id="Group" fill="#AAAAAA">
            <g transform="translate(15.000000, 134.000000)">
                <g id="loupe" transform="translate(15.000000, 10.000000)">
                    <g id="Layer_1">
                        <path d="M14,13.5971429 L8.75714286,8.35142857 C10.5025974,6.38808438 10.3706833,3.39275367 8.45939017,1.59045226 C6.54809701,-0.211849149 3.55018561,-0.167865178 1.69258879,1.68973165 C-0.165008035,3.54732847 -0.208992006,6.54523987 1.59330941,8.45653303 C3.39561082,10.3678262 6.39094152,10.4997402 8.35428571,8.75428571 L13.5971429,14 L14,13.5971429 Z M0.84,5.14285714 C0.840018918,2.77815823 2.75532601,0.86032125 5.12002284,0.857180922 C7.48471967,0.854040595 9.4051138,2.76678375 9.41141336,5.13147427 C9.41771293,7.49616479 7.50753714,9.41911263 5.14285714,9.42857143 C2.7731334,9.42859024 0.84944113,7.51256208 0.84,5.14285714 L0.84,5.14285714 Z" id="Shape"></path>
                    </g>
                </g>
            </g>
        </g>
    </g>
</svg>