<?xml version="1.0" encoding="UTF-8"?>
<svg width="2077px" height="475px" viewBox="0 0 2077 475" version="1.1" xmlns="http://www.w3.org/2000/svg" xmlns:xlink="http://www.w3.org/1999/xlink">
    <!-- Generator: Sketch 43.1 (39012) - http://www.bohemiancoding.com/sketch -->
    <title>Artboard</title>
    <desc>Created with Sketch.</desc>
    <defs></defs>
    <g id="Page-1" stroke="none" stroke-width="1" fill="none" fill-rule="evenodd">
        <g id="Artboard" fill="#FFFFFF">
            <path d="M76.5,0.896922348 L459,0.896922348 L459,333.032576 C459,361.54607 438.039,383.235937 409.5135,383.235937 L313.083,383.235937 L120.195,474.988305 L166.869,383.235937 L53.982,383.235937 C25.4565,383.235937 0,361.54607 0,333.032576 L0,108.851468 L54,108.851468 L54,135.840104 L31.5,135.840104 L31.5,333.032576 C31.5,344.867093 42.165,354.49304 54,354.49304 C65.835,354.49304 76.5,344.867093 76.5,333.032576 L76.5,0.896922348 Z M432,333.032576 L432,27.8855587 L103.5,27.8855587 L103.5,333.032576 C103.5,340.683854 104.04,347.251089 101.0475,356.247301 L216.207,356.247301 L187.4655,412.752509 L306.2475,356.247301 L409.5135,356.247301 C421.353,356.247301 432,344.867093 432,333.032576 Z" id="Combined-Shape"></path>
            <polygon id="Fill-7" points="154 282 267.4 282 267.4 242 154 242"></polygon>
            <polygon id="Fill-6" points="154 213 381.7 213 381.7 173 154 173"></polygon>
            <polygon id="Fill-4" points="154 143 381.7 143 381.7 103 154 103"></polygon>
            <path d="M589,291.459463 L601.859777,291.459463 C604.853602,291.459463 607.064917,290.642977 608.493789,289.009982 C609.92266,287.376986 610.773166,285.131651 611.045332,282.273908 L630.437059,41 L687.183375,41 L748.216285,182.253422 C749.985363,186.608077 751.720395,191.098748 753.421432,195.725569 C755.122469,200.35239 756.72142,204.638939 758.218333,208.585346 C759.851329,213.076084 761.41626,217.566755 762.913172,222.057493 L763.729666,222.057493 C765.226579,217.566755 766.79151,213.076084 768.424505,208.585346 C769.921418,204.638939 771.486349,200.35239 773.119344,195.725569 C774.75234,191.098748 776.521392,186.608077 778.426554,182.253422 L839.459463,41 L896.20578,41 L915.393383,282.273908 C915.665549,285.131651 916.550075,287.376986 918.046988,289.009982 C919.543901,290.642977 921.721196,291.459463 924.578938,291.459463 L937.642838,291.459463 L937.642838,337.795484 L890.2862,337.795484 C885.387213,337.795484 881.236744,337.25116 877.83467,336.162497 C874.432596,335.073833 871.676957,333.372821 869.567671,331.059411 C867.458384,328.746 865.825413,325.82026 864.668708,322.282103 C863.512003,318.743945 862.729537,314.457396 862.321288,309.422326 L852.31924,177.354459 C851.910991,172.455472 851.638829,167.284396 851.502746,161.841077 C851.366663,156.397758 851.366663,151.430804 851.502746,146.940066 C851.502746,141.63283 851.638827,136.393714 851.910993,131.222561 L851.094499,131.222561 C849.32542,136.938046 847.556368,142.517364 845.78729,147.960683 C844.290377,152.723588 842.555345,157.758582 840.582142,163.065818 C838.608939,168.373054 836.669785,173.135887 834.764624,177.354459 L785.366751,286.764624 L741.071964,286.764624 L691.878215,177.354459 C689.973053,173.135887 688.0339,168.339034 686.060697,162.963756 C684.087493,157.588479 682.352461,152.519464 680.855549,147.75656 C679.08647,142.177158 677.317418,136.529799 675.548339,130.814314 L674.731846,130.814314 C674.867928,135.985467 675.004009,141.292624 675.140092,146.735943 C675.140092,151.362764 675.106072,156.397758 675.038031,161.841077 C674.969989,167.284396 674.731848,172.455472 674.323599,177.354459 L664.729797,309.422326 C664.321548,314.457396 663.505062,318.743945 662.280316,322.282103 C661.055569,325.82026 659.354557,328.746 657.17723,331.059411 C654.999902,333.372821 652.176223,335.073833 648.706107,336.162497 C645.235991,337.25116 641.051502,337.795484 636.152515,337.795484 L589,337.795484 L589,291.459463 Z M959.058026,276.365453 C959.058026,265.191506 961.374541,255.652914 966.007641,247.74939 C970.640741,239.845867 976.704561,233.202919 984.199281,227.820347 C991.694002,222.437774 1000.1084,218.179474 1009.44274,215.045318 C1018.77707,211.911163 1028.14533,209.526514 1037.5478,207.891303 C1046.95027,206.256091 1055.87566,205.200033 1064.32426,204.723096 C1072.77285,204.246159 1079.9268,204.007694 1085.7863,204.007694 L1092.53152,204.007694 L1092.53152,202.16809 C1092.53152,194.537102 1091.74799,188.064486 1090.18091,182.750047 C1088.61384,177.435609 1086.22919,173.143243 1083.0269,169.872819 C1079.82461,166.602396 1075.73664,164.217747 1070.76287,162.718803 C1065.7891,161.219859 1059.89562,160.470398 1053.08223,160.470398 C1050.62942,160.470398 1047.8019,160.674797 1044.59961,161.0836 C1041.39732,161.492403 1038.29728,162.207797 1035.29939,163.229804 C1032.30151,164.251812 1029.78059,165.682601 1027.73658,167.522214 C1025.69256,169.361827 1024.67057,171.712409 1024.67057,174.574029 L1024.67057,186.020455 L975.205662,186.020455 L975.205662,163.332005 C975.205662,156.65489 976.63645,150.931735 979.498071,146.162367 C982.359692,141.392999 986.072929,137.40723 990.637895,134.204941 C995.202862,131.002651 1000.34689,128.413604 1006.07013,126.437723 C1011.79337,124.461843 1017.55059,122.962921 1023.34197,121.940914 C1029.13334,120.918906 1034.68617,120.237578 1040.0006,119.896909 C1045.31504,119.55624 1049.81181,119.385908 1053.49103,119.385908 C1071.3421,119.385908 1086.19505,121.566158 1098.05033,125.926722 C1109.90562,130.287287 1119.34201,136.282974 1126.35979,143.913962 C1133.37758,151.54495 1138.35127,160.53848 1141.28103,170.894821 C1144.21078,181.251163 1145.67564,192.424942 1145.67564,204.416495 L1145.67564,283.92827 C1145.67564,286.789891 1146.45916,289.038273 1148.02624,290.673485 C1149.59332,292.308697 1151.87577,293.12629 1154.87366,293.12629 L1171.63449,293.12629 L1171.63449,337.889989 L1123.80479,337.889989 C1118.89915,337.889989 1114.70899,337.276794 1111.23416,336.050385 C1107.75934,334.823976 1104.96589,333.120656 1102.85374,330.940373 C1100.74159,328.760091 1099.17454,326.239177 1098.15253,323.377557 C1097.13052,320.515936 1096.61953,317.518093 1096.61953,314.383937 L1096.61953,310.704729 C1096.61953,309.614588 1096.68766,308.660729 1096.82393,307.843123 C1096.82393,306.889249 1096.89206,306.003523 1097.02833,305.185917 L1096.21073,305.185917 C1092.66777,312.408102 1087.96661,318.744453 1082.1071,324.195159 C1079.65428,326.511709 1076.75863,328.794158 1073.42008,331.042574 C1070.08152,333.29099 1066.33422,335.300908 1062.17805,337.072387 C1058.02189,338.843866 1053.42293,340.274655 1048.38102,341.364796 C1043.33912,342.454938 1037.82036,343 1031.82459,343 C1022.28585,343 1013.15606,341.535145 1004.43493,338.60539 C995.713796,335.675636 987.980723,331.383269 981.235475,325.728162 C974.490226,320.073055 969.107735,313.089442 965.087839,304.777116 C961.067944,296.464789 959.058026,286.99433 959.058026,276.365453 Z M1268.31591,124 L1268.31591,66.241791 L1216.39819,90.8525263 L1216.39819,124.495919 L1187.57773,124.495919 L1187.57773,166.602412 L1215.17179,166.602412 L1215.17179,259.604617 C1215.17179,271.459902 1216.67071,281.713889 1219.6686,290.366884 C1222.66649,299.01988 1226.61819,306.31009 1231.52383,312.237732 C1236.42946,318.165375 1242.05042,322.934671 1248.38686,326.545764 C1254.72331,330.156856 1261.16186,332.950301 1267.70271,334.926182 C1274.24355,336.902063 1280.6821,338.230653 1287.01855,338.911991 C1293.35499,339.593329 1298.97595,339.933993 1303.88158,339.933993 C1308.92349,339.933993 1312.87519,339.729595 1315.73681,339.320792 C1317.37202,339.184524 1318.87094,338.980126 1320.23362,338.707591 L1320.23362,292.308688 C1319.41601,292.444956 1318.53029,292.581222 1317.57641,292.717489 C1316.75881,292.853757 1315.77088,292.955956 1314.61261,293.02409 C1313.45433,293.092224 1312.12574,293.12629 1310.6268,293.12629 C1306.94757,293.12629 1302.68927,292.683427 1297.85177,291.797687 C1293.01427,290.911948 1288.38124,289.038296 1283.95254,286.176675 C1279.52384,283.315054 1275.8106,279.261153 1272.81272,274.014848 C1269.81483,268.768544 1268.31591,261.716799 1268.31591,252.859402 L1268.31591,167 L1370.10733,167 L1370.10733,259.604617 C1370.10733,271.459902 1371.60625,281.713889 1374.60414,290.366884 C1377.60203,299.01988 1381.55373,306.31009 1386.45937,312.237732 C1391.365,318.165375 1396.98596,322.934671 1403.3224,326.545764 C1409.65885,330.156856 1416.0974,332.950301 1422.63825,334.926182 C1429.17909,336.902063 1435.61764,338.230653 1441.95409,338.911991 C1448.29053,339.593329 1453.91149,339.933993 1458.81713,339.933993 C1463.85903,339.933993 1467.81073,339.729595 1470.67235,339.320792 C1472.30756,339.184524 1473.80649,338.980126 1475.16916,338.707591 L1475.16916,292.308688 C1474.35156,292.444956 1473.46583,292.581222 1472.51196,292.717489 C1471.69435,292.853757 1470.70642,292.955956 1469.54815,293.02409 C1468.38987,293.092224 1467.06128,293.12629 1465.56234,293.12629 C1461.88311,293.12629 1457.62481,292.683427 1452.78731,291.797687 C1447.94981,290.911948 1443.31678,289.038296 1438.88808,286.176675 C1434.45938,283.315054 1430.74615,279.261153 1427.74826,274.014848 C1424.75037,268.768544 1423.25145,261.716799 1423.25145,252.859402 L1423.25145,166.602412 L1471.89875,166.602412 L1471.89875,124.495919 L1423.25145,124.495919 L1423.25145,66.241791 L1371.33373,90.8525263 L1371.33373,124 L1268.31591,124 Z M1012.61094,273.912648 C1012.61094,268.870745 1013.73514,264.578378 1015.98355,261.03542 C1018.23197,257.492461 1021.22981,254.460551 1024.97717,251.9396 C1028.72453,249.418648 1033.05096,247.40873 1037.9566,245.909786 C1042.86223,244.410842 1047.9722,243.252585 1053.28663,242.434979 C1058.60107,241.617373 1063.91543,241.07231 1069.22987,240.799775 C1074.54431,240.52724 1079.518,240.390974 1084.1511,240.390974 L1093.34912,240.390974 L1093.34912,245.296585 C1093.34912,251.837432 1092.1568,258.412248 1089.77211,265.021228 C1087.38743,271.630209 1084.04892,277.659962 1079.75649,283.110668 C1075.46406,288.561374 1070.32003,292.990006 1064.32426,296.396697 C1058.32848,299.803389 1051.78773,301.506709 1044.70181,301.506709 C1039.25111,301.506709 1034.51588,300.723181 1030.49598,299.156104 C1026.47609,297.589026 1023.13758,295.545042 1020.48036,293.02409 C1017.82314,290.503139 1015.84729,287.573428 1014.55275,284.234871 C1013.25821,280.896313 1012.61094,277.455607 1012.61094,273.912648 Z M1502.96762,231.192954 C1502.96762,214.704569 1505.6248,199.613153 1510.93924,185.918254 C1516.25368,172.223356 1523.68015,160.436381 1533.21889,150.556977 C1542.75762,140.677572 1554.16987,133.012632 1567.45596,127.561926 C1580.74206,122.11122 1595.35655,119.385908 1611.29986,119.385908 C1626.56184,119.385908 1640.0862,122.009021 1651.87335,127.255325 C1663.6605,132.50163 1673.53976,139.68964 1681.51142,148.819573 C1689.48307,157.949505 1695.54689,168.680421 1699.70306,181.012644 C1703.85922,193.344866 1705.93727,206.596696 1705.93727,220.768531 C1705.93727,222.267475 1705.86914,224.141127 1705.73287,226.389543 C1705.5966,228.63796 1705.46034,230.784143 1705.32407,232.828158 C1705.05153,235.280975 1704.84713,237.801889 1704.71087,240.390974 L1557.33814,240.390974 C1558.29202,249.793442 1560.67666,258.071577 1564.49216,265.225629 C1568.30765,272.37968 1573.07695,278.341301 1578.80019,283.110668 C1584.52343,287.880036 1591.03011,291.491074 1598.32043,293.943892 C1605.61075,296.39671 1613.27569,297.6231 1621.31548,297.6231 C1629.90034,297.6231 1637.83782,296.39671 1645.12814,293.943892 C1652.41845,291.491074 1658.72074,288.765762 1664.03518,285.767874 C1670.30349,282.224915 1676.02664,278.273213 1681.20481,273.912648 L1703.48446,310.704729 C1696.67108,316.836773 1688.97207,322.219264 1680.38721,326.852364 C1672.89249,330.940394 1663.89896,334.653632 1653.40635,337.992189 C1642.91374,341.330746 1630.9905,343 1617.63628,343 C1599.92148,343 1583.97841,340.036223 1569.80657,334.10858 C1555.63473,328.180938 1543.60929,320.107201 1533.72989,309.887127 C1523.85049,299.667054 1516.25368,287.77788 1510.93924,274.219249 C1505.6248,260.660618 1502.96762,246.318663 1502.96762,231.192954 Z M1651.56675,203.598893 C1651.29421,197.194314 1650.06782,191.334893 1647.88754,186.020455 C1645.70726,180.706016 1642.81162,176.175185 1639.20052,172.427825 C1635.58943,168.680464 1631.39926,165.750754 1626.62989,163.638605 C1621.86053,161.526457 1616.75057,160.470398 1611.29986,160.470398 C1597.6731,160.470398 1586.29492,164.285835 1577.16499,171.916824 C1568.03505,179.547812 1561.97123,190.108396 1558.97335,203.598893 L1651.56675,203.598893 Z M1757.44618,178.866439 C1757.44618,172.734395 1754.38021,169.668419 1748.24816,169.668419 L1731.48733,169.668419 L1731.48733,124.495919 L1780.13463,124.495919 C1789.5371,124.495919 1796.62291,126.539903 1801.39228,130.627933 C1806.16165,134.715962 1808.5463,141.256711 1808.5463,150.250376 L1808.5463,162.923204 C1808.5463,164.967218 1808.51223,166.806804 1808.44409,168.442016 C1808.37596,170.077228 1808.27376,171.439884 1808.13749,172.530025 C1808.00123,173.892701 1807.86496,175.119092 1807.72869,176.209233 L1808.5463,176.209233 C1810.99911,168.578245 1814.37169,161.424301 1818.66412,154.747186 C1822.95655,148.070071 1827.99838,142.278783 1833.78975,137.373148 C1839.58113,132.467512 1846.08781,128.583943 1853.30999,125.722322 C1860.53218,122.860701 1868.23119,121.429912 1876.40724,121.429912 C1877.49739,121.429912 1878.62158,121.463979 1879.77985,121.532113 C1880.93813,121.600247 1881.99419,121.702446 1882.94806,121.838713 C1884.0382,121.974981 1885.06019,122.111247 1886.01407,122.247514 L1886.01407,174.574029 C1884.92392,174.437762 1883.69753,174.301496 1882.33486,174.165229 C1881.24472,174.028961 1879.88206,173.926762 1878.24685,173.858628 C1876.61164,173.790494 1874.84018,173.756428 1872.93244,173.756428 C1867.34546,173.756428 1861.62231,174.608088 1855.7628,176.311433 C1849.90329,178.014779 1844.35047,180.671958 1839.10416,184.283051 C1833.85786,187.894143 1829.12263,192.527174 1824.89833,198.182281 C1820.67403,203.837389 1817.33553,210.616603 1814.88271,218.520126 C1811.74855,229.421538 1810.1815,241.004114 1810.1815,253.268203 L1810.1815,337.889989 L1757.44618,337.889989 L1757.44618,178.866439 Z M1930.77776,270.029039 C1936.22847,276.024816 1942.29229,281.271042 1948.9694,285.767874 C1954.69265,289.719636 1961.40373,293.330674 1969.10285,296.601098 C1976.80197,299.871521 1985.21637,301.506709 1994.3463,301.506709 C1998.43433,301.506709 2002.24977,301.097912 2005.79273,300.280306 C2009.33569,299.4627 2012.40166,298.168177 2014.99075,296.396697 C2017.57983,294.625218 2019.62382,292.410902 2021.12276,289.753683 C2022.62171,287.096464 2023.37117,283.996421 2023.37117,280.453462 C2023.37117,276.637968 2021.77005,273.265395 2018.56776,270.33564 C2015.36547,267.405886 2011.10717,264.646507 2005.79273,262.057422 C2000.47829,259.468337 1994.44854,256.87929 1987.70329,254.290205 C1980.95804,251.70112 1974.07663,248.873608 1967.05884,245.807586 C1960.04106,242.741564 1953.15965,239.300858 1946.4144,235.485363 C1939.66915,231.669869 1933.6394,227.207171 1928.32496,222.097134 C1923.01052,216.987097 1918.75222,211.127676 1915.54993,204.518695 C1912.34764,197.909714 1910.74652,190.312907 1910.74652,181.728045 C1910.74652,171.099169 1912.9949,161.867174 1917.49173,154.031784 C1921.98857,146.196394 1928.01832,139.723778 1935.58117,134.613741 C1943.14403,129.503705 1951.93316,125.688268 1961.94883,123.167316 C1971.9645,120.646365 1982.49102,119.385908 1993.5287,119.385908 C1998.29807,119.385908 2003.47616,119.692506 2009.06314,120.30571 C2014.65011,120.918914 2020.237,121.872774 2025.82397,123.167316 C2031.41095,124.461859 2036.75937,126.233312 2041.86941,128.481728 C2046.97945,130.730144 2051.51028,133.489523 2055.46204,136.759946 C2059.4138,140.03037 2062.58198,143.913939 2064.96666,148.410772 C2067.35134,152.907604 2068.54367,158.017564 2068.54367,163.740806 L2068.54367,186.020455 L2021.53156,186.020455 L2021.53156,175.391631 C2021.53156,172.938814 2020.6799,170.758564 2018.97656,168.850817 C2017.27321,166.94307 2015.12703,165.376015 2012.53794,164.149606 C2009.94886,162.923198 2007.08728,162.003405 2003.95313,161.3902 C2000.81897,160.776996 1997.75299,160.470398 1994.7551,160.470398 C1985.35264,160.470398 1977.72176,162.071519 1971.86225,165.273809 C1966.00275,168.476099 1963.07304,173.279461 1963.07304,179.684041 C1963.07304,183.908338 1964.70822,187.553443 1967.97865,190.619465 C1971.24907,193.685487 1975.54144,196.512998 1980.85587,199.102083 C1986.17031,201.691169 1992.20007,204.212082 1998.94531,206.6649 C2005.69056,209.117718 2012.64011,211.740831 2019.79416,214.534317 C2026.94821,217.327804 2033.89776,220.530046 2040.64301,224.141138 C2047.38825,227.752231 2053.41801,232.044598 2058.73245,237.018367 C2064.04688,241.992136 2068.33925,247.783424 2071.60967,254.392405 C2074.8801,261.001386 2076.51528,268.734459 2076.51528,277.591856 C2076.51528,287.675662 2074.40317,296.737325 2070.17887,304.777116 C2065.95457,312.816907 2060.16329,319.664254 2052.80483,325.319361 C2045.44638,330.974468 2036.75945,335.334968 2026.74378,338.40099 C2016.7281,341.467012 2005.92905,343 1994.3463,343 C1986.98785,343 1980.10644,342.454938 1973.70186,341.364796 C1967.29728,340.274655 1961.33566,338.843866 1955.81682,337.072387 C1950.29798,335.300908 1945.22209,333.29099 1940.58899,331.042574 C1935.95589,328.794158 1931.79978,326.443576 1928.12056,323.990758 C1919.39943,318.403785 1911.90482,311.999301 1905.63651,304.777116 L1930.77776,270.029039 Z" id="Matters"></path>
        </g>
    </g>
</svg>