<?xml version="1.0" encoding="UTF-8"?>
<svg width="73px" height="20px" viewBox="0 0 73 20" version="1.1" xmlns="http://www.w3.org/2000/svg" xmlns:xlink="http://www.w3.org/1999/xlink">
    <g id="Screens" stroke="none" stroke-width="1" fill="none" fill-rule="evenodd">
        <g id="Menu-mobile-(aberto)" transform="translate(-154.000000, -580.000000)">
            <g id="Group-14" transform="translate(93.000000, 580.000000)">
                <g id="Group-2-Copy" transform="translate(61.000000, 0.000000)">
                    <g id="logotipo" transform="translate(23.494737, 1.473684)" fill="#999999">
                        <path d="M1.20362184,5.28370546 C1.20362184,4.99231098 1.04831979,4.85621674 0.776489634,4.85621674 L-2.06244424e-05,4.85621674 L-2.06244424e-05,2.75697865 L2.27134922,2.75697865 C3.14479436,2.75697865 3.57192657,3.16505484 3.57192657,3.86493855 L3.57192657,4.15633303 C3.57192657,4.37007739 3.55253959,4.58382175 3.55253959,4.58382175 L3.59131354,4.58382175 C4.0572197,3.61216261 5.24147518,2.52361524 6.79428946,2.52361524 C8.28914905,2.52361524 9.25994155,3.22329243 9.68686751,4.56461574 L9.72564146,4.56461574 C10.2499148,3.4954809 11.5311052,2.52361524 13.1035126,2.52361524 C15.1612133,2.52361524 16.3454688,3.68981273 16.3454688,6.29460271 L16.3454688,10.1626528 C16.3454688,10.4348413 16.5007708,10.5903481 16.7723947,10.5903481 L17.529518,10.5903481 L17.529518,12.6703802 L15.1999872,12.6703802 C14.2683812,12.6703802 13.8800229,12.28151 13.8800229,11.3484694 L13.8800229,6.76112301 C13.8800229,5.63354406 13.6665599,4.7783601 12.5210784,4.7783601 C11.298049,4.7783601 10.4246038,5.80866987 10.1527737,7.05251749 C10.0362456,7.44138767 9.99747161,7.84967038 9.99747161,8.31619068 L9.99747161,12.6703802 L7.53202576,12.6703802 L7.53202576,6.76112301 C7.53202576,5.69198817 7.37672371,4.7783601 6.19246822,4.7783601 C4.95025806,4.7783601 4.11538062,5.80866987 3.80477652,7.07193003 C3.70784164,7.4608002 3.64947447,7.86908291 3.64947447,8.31619068 L3.64947447,12.6703802 L1.20362184,12.6703802 L1.20362184,5.28370546 Z" id="Fill-8"></path>
                        <path d="M33.874038,5.28370546 C33.874038,4.99231098 33.718736,4.85621674 33.4471121,4.85621674 L32.6706018,4.85621674 L32.6706018,2.75697865 L34.9223784,2.75697865 C35.7958236,2.75697865 36.2423428,3.12622977 36.2423428,3.9620012 L36.2423428,4.54520321 C36.2423428,4.91445434 36.2035688,5.16723028 36.2035688,5.16723028 L36.2423428,5.16723028 C36.6888619,3.74805033 37.8731174,2.62067789 39.3871578,2.62067789 C39.6010332,2.62067789 39.8336769,2.65950296 39.8336769,2.65950296 L39.8336769,5.08958015 C39.8336769,5.08958015 39.58144,5.05054857 39.2320619,5.05054857 C38.1837215,5.05054857 36.9802853,5.65316311 36.5337661,7.13037414 C36.3976448,7.61651348 36.3200969,8.16068391 36.3200969,8.7436794 L36.3200969,12.6703802 L33.874038,12.6703802 L33.874038,5.28370546 Z" id="Fill-9"></path>
                        <path d="M41.910517,9.52131649 C41.910517,9.52131649 43.1723204,10.9793215 44.861256,10.9793215 C45.6183793,10.9793215 46.2008136,10.6681015 46.2008136,10.0072493 C46.2008136,8.60768842 40.9787047,8.62710095 40.9787047,5.41990296 C40.9787047,3.43714005 42.7647814,2.52351198 44.8224821,2.52351198 C46.1618334,2.52351198 48.2972881,2.97061975 48.2972881,4.58392501 L48.2972881,5.61423479 L46.1230594,5.61423479 L46.1230594,5.12830195 C46.1230594,4.66178165 45.4243033,4.42862476 44.880643,4.42862476 C44.0071979,4.42862476 43.4051704,4.73943178 43.4051704,5.32263378 C43.4051704,6.87770145 48.6660532,6.56668792 48.6660532,9.87115509 C48.6660532,11.7372363 47.0160978,12.9034338 44.861256,12.9034338 C42.1435732,12.9034338 40.7458548,11.1346218 40.7458548,11.1346218 L41.910517,9.52131649 Z" id="Fill-10"></path>
                        <path d="M23.9596004,10.59041 C23.2802313,10.59041 22.0681328,10.3570466 22.0681328,8.72432882 L22.0681328,4.78833484 L24.1305771,4.78833484 L24.1305771,2.72317193 L22.0681328,2.72317193 L22.0681328,0.0107869674 L22.0093531,0.0384601504 L19.5931997,1.1990817 L19.5931997,2.72317193 L18.1494887,2.72317193 L18.1494887,4.78833484 L19.5931997,4.78833484 L19.5931997,9.03534236 C19.5931997,12.3592221 22.2659212,12.7675048 23.6442527,12.7675048 C24.0907719,12.7675048 24.3368215,12.7092672 24.3368215,12.7092672 L24.3368215,10.551585 C24.3368215,10.551585 24.2312243,10.59041 23.9596004,10.59041" id="Fill-11"></path>
                        <path d="M31.1781553,10.59041 C30.4987862,10.59041 29.2866877,10.3570466 29.2866877,8.72432882 L29.2866877,4.78833484 L31.3491319,4.78833484 L31.3491319,2.72317193 L29.2866877,2.72317193 L29.2866877,0.0107869674 L29.227908,0.0384601504 L26.8117546,1.1990817 L26.8117546,2.72317193 L25.3680436,2.72317193 L25.3680436,4.78833484 L26.8117546,4.78833484 L26.8117546,9.03534236 C26.8117546,12.3592221 29.4844761,12.7675048 30.8628076,12.7675048 C31.3093267,12.7675048 31.5553763,12.7092672 31.5553763,12.7092672 L31.5553763,10.551585 C31.5553763,10.551585 31.4497792,10.59041 31.1781553,10.59041" id="Fill-12"></path>
                    </g>
                    <g id="ícone">
                        <path d="M3.22105263,0.0377651515 L3.22105263,14.0224242 C3.22105263,14.5207197 2.772,14.9260227 2.27368421,14.9260227 C1.77536842,14.9260227 1.32631579,14.5207197 1.32631579,14.0224242 L1.32631579,5.71958333 L2.27368421,5.71958333 L2.27368421,4.5832197 L0,4.5832197 L0,14.0224242 C0,15.2229924 1.07185263,16.13625 2.27292632,16.13625 L7.02606316,16.13625 L5.06084211,19.9995076 L13.1824421,16.13625 L17.2426737,16.13625 C18.4437474,16.13625 19.3263158,15.2229924 19.3263158,14.0224242 L19.3263158,0.0377651515 L3.22105263,0.0377651515 Z" id="Fill-1" fill="#999999"></path>
                        <path d="M18.1894737,14.0224242 C18.1894737,14.5207197 17.7411789,14.9998864 17.2426737,14.9998864 L12.8946316,14.9998864 L7.89328421,17.379053 L9.10345263,14.9998864 L4.25463158,14.9998864 C4.38063158,14.6210985 4.35789474,14.3445833 4.35789474,14.0224242 L4.35789474,1.17412879 L18.1894737,1.17412879 L18.1894737,14.0224242 Z" id="Path" fill="#2D2D2B"></path>
                        <polygon id="Fill-7" fill="#999999" points="6.48 11.6287879 11.2547368 11.6287879 11.2547368 10.3787879 6.48 10.3787879"></polygon>
                        <polygon id="Fill-6" fill="#999999" points="6.48 8.71212121 16.0673684 8.71212121 16.0673684 7.46212121 6.48 7.46212121"></polygon>
                        <polygon id="Fill-4" fill="#999999" points="6.48 5.79545455 16.0673684 5.79545455 16.0673684 4.54545455 6.48 4.54545455"></polygon>
                    </g>
                </g>
            </g>
        </g>
    </g>
</svg>