<?xml version="1.0" encoding="UTF-8"?>
<svg width="92px" height="21px" viewBox="0 0 92 21" version="1.1" xmlns="http://www.w3.org/2000/svg" xmlns:xlink="http://www.w3.org/1999/xlink">
    <!-- Generator: Sketch 43.1 (39012) - http://www.bohemiancoding.com/sketch -->
    <title>Group 7</title>
    <desc>Created with Sketch.</desc>
    <defs></defs>
    <g id="Screens" stroke="none" stroke-width="1" fill="none" fill-rule="evenodd">
        <g id="Menu-secundário-Copy" transform="translate(-90.000000, -978.000000)">
            <g id="Group-5" transform="translate(0.000000, 60.000000)">
                <g id="Group-2" transform="translate(19.000000, 674.000000)">
                    <g id="Group-7" transform="translate(71.000000, 244.000000)">
                        <g id="ícone">
                            <rect id="Rectangle" fill="#2D2D2B" x="1.14947368" y="6.01263158" width="2.47578947" height="10.1242105"></rect>
                            <path d="M3.38210526,0.0396534091 L3.38210526,14.7235455 C3.38210526,15.2467557 2.9106,15.6723239 2.38736842,15.6723239 C1.86413684,15.6723239 1.39263158,15.2467557 1.39263158,14.7235455 L1.39263158,6.0055625 L2.38736842,6.0055625 L2.38736842,4.81238068 L0,4.81238068 L0,14.7235455 C0,15.984142 1.12544526,16.9430625 2.38657263,16.9430625 L7.37736632,16.9430625 L5.31388421,20.999483 L13.8415642,16.9430625 L18.1048074,16.9430625 C19.3659347,16.9430625 20.2926316,15.984142 20.2926316,14.7235455 L20.2926316,0.0396534091 L3.38210526,0.0396534091 Z" id="Fill-1" fill="#999999"></path>
                            <path d="M19.0989474,14.7235455 C19.0989474,15.2467557 18.6282379,15.7498807 18.1048074,15.7498807 L13.5393632,15.7498807 L8.28794842,18.2480057 L9.55862526,15.7498807 L4.46736316,15.7498807 C4.59966316,15.3521534 4.57578947,15.0618125 4.57578947,14.7235455 L4.57578947,1.23283523 L19.0989474,1.23283523 L19.0989474,14.7235455 Z" id="Path" fill="#2D2D2B"></path>
                            <g id="Group" transform="translate(6.808421, 4.553684)" fill="#999999">
                                <polygon id="Fill-7" points="0 7.91368421 5.01347368 7.91368421 5.01347368 6.14526316 0 6.14526316"></polygon>
                                <polygon id="Fill-6" points="0 4.86315789 10.0667368 4.86315789 10.0667368 3.09473684 0 3.09473684"></polygon>
                                <polygon id="Fill-4" points="0 1.76842105 10.0667368 1.76842105 10.0667368 0 0 0"></polygon>
                            </g>
                        </g>
                        <path d="M26.04,12.8855763 L26.6085375,12.8855763 C26.7408961,12.8855763 26.8386595,12.849479 26.9018307,12.7772834 C26.9650018,12.7050878 27.0026031,12.6058203 27.0146357,12.479478 L27.8719542,1.81263158 L30.3807387,1.81263158 L33.0790357,8.05751969 C33.1572476,8.25004129 33.2339543,8.44857621 33.3091581,8.65313041 C33.3843618,8.85768461 33.4550523,9.04719521 33.5212316,9.22166791 C33.5934272,9.42020581 33.6626136,9.61874073 33.7287929,9.81727863 L33.7648905,9.81727863 C33.8310698,9.61874073 33.9002562,9.42020581 33.9724518,9.22166791 C34.0386311,9.04719521 34.1078175,8.85768461 34.1800131,8.65313041 C34.2522087,8.44857621 34.3304194,8.25004129 34.4146476,8.05751969 L37.1129447,1.81263158 L39.6217292,1.81263158 L40.4700233,12.479478 C40.4820559,12.6058203 40.5211612,12.7050878 40.5873405,12.7772834 C40.6535198,12.849479 40.7497792,12.8855763 40.8761215,12.8855763 L41.4536834,12.8855763 L41.4536834,14.9341161 L39.3600215,14.9341161 C39.1434347,14.9341161 38.9599403,14.9100513 38.8095328,14.8619209 C38.6591253,14.8137905 38.537297,14.7385879 38.4440444,14.6363108 C38.3507917,14.5340337 38.2785972,14.4046852 38.2274587,14.2482614 C38.1763201,14.0918376 38.1417269,13.902327 38.123678,13.6797239 L37.6814822,7.84093398 C37.6634333,7.62434718 37.6514009,7.39573121 37.6453846,7.15507921 C37.6393683,6.91442722 37.6393683,6.69483556 37.6453846,6.49629766 C37.6453846,6.26166197 37.6514008,6.03003789 37.6634334,5.8014185 L37.6273358,5.8014185 C37.5491239,6.05410309 37.4709131,6.30076769 37.3927012,6.54141969 C37.3265219,6.75199019 37.2498153,6.97458995 37.1625789,7.20922564 C37.0753426,7.44386134 36.9896116,7.65442868 36.9053834,7.84093398 L34.7214774,12.6780149 L32.7631816,12.6780149 L30.5883,7.84093398 C30.5040718,7.65442868 30.4183408,7.44235729 30.3311045,7.20471344 C30.2438681,6.96706959 30.1671615,6.74296578 30.1009822,6.53239528 C30.0227703,6.28572699 29.9445595,6.03605428 29.8663476,5.78336969 L29.83025,5.78336969 C29.8362663,6.01198908 29.8422825,6.24662126 29.8482988,6.48727326 C29.8482988,6.69182746 29.8467948,6.91442722 29.8437866,7.15507921 C29.8407785,7.39573121 29.8302501,7.62434718 29.8122012,7.84093398 L29.3880542,13.6797239 C29.3700053,13.902327 29.333908,14.0918376 29.2797613,14.2482614 C29.2256146,14.4046852 29.150412,14.5340337 29.0541512,14.6363108 C28.9578904,14.7385879 28.833054,14.8137905 28.6796384,14.8619209 C28.5262228,14.9100513 28.3412243,14.9341161 28.1246375,14.9341161 L26.04,14.9341161 L26.04,12.8855763 Z M42.4004601,12.2182621 C42.4004601,11.7242561 42.5028745,11.3025499 42.7077062,10.9531309 C42.912538,10.603712 43.1806227,10.3100238 43.5119682,10.0720574 C43.8433138,9.83409108 44.2153189,9.64582939 44.6279947,9.50726671 C45.0406705,9.36870403 45.4548462,9.26327748 45.8705343,9.19098391 C46.2862223,9.11869034 46.6808188,9.07200144 47.0543356,9.05091581 C47.4278524,9.02983019 47.744132,9.01928753 48.003184,9.01928753 L48.3013935,9.01928753 L48.3013935,8.93795767 C48.3013935,8.60058766 48.2667533,8.31442989 48.197472,8.07947578 C48.1281907,7.84452167 48.0227641,7.65475388 47.8811892,7.51016674 C47.7396143,7.36557959 47.5588831,7.26015305 47.3389901,7.19388394 C47.1190972,7.12761483 46.858543,7.09448077 46.5573198,7.09448077 C46.4488794,7.09448077 46.3238736,7.10351733 46.1822987,7.12159072 C46.0407238,7.13966412 45.9036693,7.17129208 45.7711311,7.21647557 C45.6385929,7.26165905 45.527142,7.32491498 45.436775,7.40624525 C45.346408,7.48757552 45.3012252,7.59149597 45.3012252,7.71800972 L45.3012252,8.2240622 L43.1143556,8.2240622 L43.1143556,7.22099389 C43.1143556,6.92579513 43.1776115,6.67277142 43.3041252,6.46191517 C43.430639,6.25105891 43.5948032,6.07484597 43.7966227,5.93327106 C43.9984423,5.79169614 44.2258624,5.67723304 44.4788899,5.5898783 C44.7319174,5.50252357 44.9864472,5.43625545 45.242487,5.39107197 C45.4985267,5.34588849 45.74402,5.31576662 45.9789741,5.30070546 C46.2139282,5.28564429 46.4127325,5.27811383 46.5753931,5.27811383 C47.3645979,5.27811383 48.0212547,5.37450381 48.5453831,5.56728667 C49.0695115,5.76006953 49.4866994,6.02514199 49.7969593,6.362512 C50.1072192,6.69988201 50.3271089,7.0974907 50.4566349,7.55534999 C50.5861609,8.01320929 50.6509229,8.50720796 50.6509229,9.03736083 L50.6509229,12.5526183 C50.6509229,12.679132 50.685563,12.7785342 50.7548444,12.8508278 C50.8241257,12.9231213 50.925034,12.9592676 51.0575722,12.9592676 L51.7985776,12.9592676 L51.7985776,14.9382942 L49.6840012,14.9382942 C49.4671205,14.9382942 49.281871,14.9111846 49.1282471,14.8569644 C48.9746233,14.8027442 48.8511236,14.7274395 48.7577444,14.6310481 C48.6643652,14.5346567 48.5950849,14.4232057 48.5499014,14.296692 C48.5047179,14.1701782 48.4821265,14.037642 48.4821265,13.8990793 L48.4821265,13.7364196 C48.4821265,13.6882239 48.4851387,13.6460533 48.4911632,13.6099065 C48.4911632,13.5677352 48.4941754,13.5285768 48.5001998,13.49243 L48.4640532,13.49243 C48.3074172,13.8117266 48.0995762,14.09186 47.8405243,14.3328386 C47.7320839,14.4352545 47.604066,14.5361628 47.4564666,14.6355664 C47.3088672,14.7349701 47.1431969,14.8238296 46.9594508,14.9021476 C46.7757046,14.9804657 46.572382,15.0437216 46.3494768,15.0919173 C46.1265716,15.140113 45.8825845,15.1642105 45.617508,15.1642105 C45.1957955,15.1642105 44.7921624,15.0994485 44.4065967,14.9699225 C44.021031,14.8403965 43.6791478,14.6506288 43.3809368,14.4006135 C43.0827258,14.1505982 42.844763,13.841849 42.6670413,13.4743567 C42.4893196,13.1068644 42.4004601,12.6881704 42.4004601,12.2182621 Z M56.0729138,5.48210526 L56.0729138,2.92858445 L53.7776043,4.01663801 L53.7776043,5.50403011 L52.5034364,5.50403011 L52.5034364,7.36558031 L53.7233844,7.36558031 L53.7233844,11.4772567 C53.7233844,12.0013851 53.7896525,12.4547193 53.9221907,12.8372728 C54.0547289,13.2198263 54.2294358,13.5421303 54.4463165,13.8041945 C54.6631972,14.0662587 54.9117026,14.2771118 55.1918402,14.4367601 C55.4719778,14.5964084 55.7566295,14.7199081 56.0458038,14.8072628 C56.3349781,14.8946175 56.6196298,14.9533552 56.8997674,14.9834775 C57.179905,15.0135998 57.4284104,15.0286608 57.6452911,15.0286608 C57.8681963,15.0286608 58.0429031,15.0196242 58.1694169,15.0015508 C58.2417105,14.9955263 58.3079786,14.9864898 58.3682232,14.9744408 L58.3682232,12.923121 C58.3320764,12.9291454 58.292918,12.9351698 58.2507468,12.9411943 C58.2146,12.9472187 58.1709233,12.951737 58.1197153,12.9547492 C58.0685074,12.9577615 58.0097697,12.9592676 57.9435006,12.9592676 C57.7808401,12.9592676 57.5925784,12.9396884 57.3787099,12.9005293 C57.1648414,12.8613703 56.9600127,12.7785352 56.7642176,12.6520214 C56.5684225,12.5255077 56.4042583,12.3462825 56.2717201,12.1143407 C56.1391819,11.8823988 56.0729138,11.5706374 56.0729138,11.1790472 L56.0729138,7.38315789 L60.5731662,7.38315789 L60.5731662,11.4772567 C60.5731662,12.0013851 60.6394343,12.4547193 60.7719725,12.8372728 C60.9045107,13.2198263 61.0792176,13.5421303 61.2960983,13.8041945 C61.512979,14.0662587 61.7614845,14.2771118 62.041622,14.4367601 C62.3217596,14.5964084 62.6064113,14.7199081 62.8955856,14.8072628 C63.1847599,14.8946175 63.4694116,14.9533552 63.7495492,14.9834775 C64.0296868,15.0135998 64.2781922,15.0286608 64.4950729,15.0286608 C64.7179781,15.0286608 64.892685,15.0196242 65.0191987,15.0015508 C65.0914923,14.9955263 65.1577604,14.9864898 65.218005,14.9744408 L65.218005,12.923121 C65.1818583,12.9291454 65.1426998,12.9351698 65.1005286,12.9411943 C65.0643818,12.9472187 65.0207051,12.951737 64.9694971,12.9547492 C64.9182892,12.9577615 64.8595515,12.9592676 64.7932824,12.9592676 C64.6306219,12.9592676 64.4423602,12.9396884 64.2284917,12.9005293 C64.0146232,12.8613703 63.8097945,12.7785352 63.6139994,12.6520214 C63.4182043,12.5255077 63.2540401,12.3462825 63.1215019,12.1143407 C62.9889637,11.8823988 62.9226956,11.5706374 62.9226956,11.1790472 L62.9226956,7.36558031 L65.0734186,7.36558031 L65.0734186,5.50403011 L62.9226956,5.50403011 L62.9226956,2.92858445 L60.6273861,4.01663801 L60.6273861,5.48210526 L56.0729138,5.48210526 Z M44.7680628,12.1098223 C44.7680628,11.8869171 44.8177639,11.6971494 44.9171675,11.5405133 C45.0165712,11.3838772 45.1491074,11.2498349 45.3147802,11.1383823 C45.480453,11.0269297 45.6717268,10.9380702 45.8886076,10.8718011 C46.1054883,10.805532 46.3314023,10.7543248 46.5663564,10.718178 C46.8013105,10.6820312 47.0362611,10.6579337 47.2712152,10.6458848 C47.5061693,10.6338359 47.726059,10.6278115 47.9308908,10.6278115 L48.3375401,10.6278115 L48.3375401,10.8446911 C48.3375401,11.1338654 48.2848268,11.4245415 48.1793987,11.716728 C48.0739706,12.0089145 47.9263734,12.2754931 47.7366028,12.5164716 C47.5468322,12.7574502 47.319412,12.9532424 47.0543356,13.103854 C46.7892592,13.2544656 46.5000892,13.3297703 46.1868171,13.3297703 C45.9458385,13.3297703 45.7364915,13.2951301 45.5587698,13.2258488 C45.3810481,13.1565674 45.2334509,13.0662018 45.1159739,12.9547492 C44.9984968,12.8432967 44.9111434,12.7137726 44.853911,12.5661732 C44.7966786,12.4185739 44.7680628,12.2664584 44.7680628,12.1098223 Z M66.4469896,10.2211622 C66.4469896,9.49220198 66.5644649,8.82500255 66.799419,8.21954388 C67.0343732,7.6140852 67.3627015,7.09297685 67.7844141,6.65620317 C68.2061266,6.2194295 68.7106679,5.88055846 69.2980532,5.63957988 C69.8854385,5.39860131 70.5315526,5.27811383 71.2364149,5.27811383 C71.9111549,5.27811383 72.5090741,5.39408303 73.0301902,5.62602491 C73.5513064,5.85796679 73.9880735,6.17575252 74.3405047,6.57939164 C74.6929359,6.98303075 74.9610205,7.45745021 75.1447667,8.00266424 C75.3285128,8.54787827 75.4203845,9.13374865 75.4203845,9.76029295 C75.4203845,9.82656206 75.4173724,9.9093972 75.4113479,10.0088009 C75.4053234,10.1082045 75.399299,10.2030884 75.3932746,10.2934554 C75.3812257,10.4018957 75.3721891,10.5133467 75.3661646,10.6278115 L68.8507389,10.6278115 C68.8929102,11.0434995 68.9983367,11.4094803 69.1670217,11.7257646 C69.3357067,12.042049 69.5465598,12.3056154 69.7995873,12.5164716 C70.0526148,12.7273279 70.3402787,12.8869738 70.6625875,12.9954142 C70.9848964,13.1038545 71.3237674,13.1580739 71.6792108,13.1580739 C72.0587521,13.1580739 72.4096719,13.1038545 72.7319807,12.9954142 C73.0542896,12.8869738 73.3329169,12.7664863 73.567871,12.6339481 C73.8449964,12.477312 74.0980201,12.3026052 74.3269497,12.1098223 L75.3119447,13.7364196 C75.0107215,14.0075205 74.6703444,14.2454833 74.2908031,14.4503151 C73.9594576,14.631049 73.5618489,14.7952132 73.0979651,14.9428126 C72.6340814,15.0904119 72.1069486,15.1642105 71.5165511,15.1642105 C70.7333707,15.1642105 70.028519,15.0331804 69.4019747,14.7711162 C68.7754304,14.509052 68.2437794,14.1521078 67.8070057,13.700273 C67.370232,13.2484382 67.0343732,12.7228115 66.799419,12.1233773 C66.5644649,11.5239431 66.4469896,10.8898777 66.4469896,10.2211622 Z M73.0166353,9.00121423 C73.0045863,8.7180644 72.950367,8.45901632 72.8539755,8.2240622 C72.7575841,7.98910809 72.6295661,7.78879765 72.4699178,7.62312488 C72.3102695,7.45745211 72.12502,7.32792807 71.9141638,7.23454887 C71.7033075,7.14116967 71.4773935,7.09448077 71.2364149,7.09448077 C70.6339685,7.09448077 70.1309332,7.26316324 69.7272941,7.60053325 C69.323655,7.93790326 69.0555704,8.40479225 68.9230321,9.00121423 L73.0166353,9.00121423 Z M77.6976207,7.9077794 C77.6976207,7.6366785 77.5620723,7.50113009 77.2909714,7.50113009 L76.549966,7.50113009 L76.549966,5.50403011 L78.700689,5.50403011 C79.1163771,5.50403011 79.4296445,5.59439572 79.6405008,5.77512966 C79.851357,5.95586359 79.9567836,6.24503354 79.9567836,6.6426482 L79.9567836,7.20292059 C79.9567836,7.29328755 79.9552775,7.3746166 79.9522652,7.44691018 C79.949253,7.51920375 79.9447347,7.57944749 79.9387103,7.62764321 C79.9326858,7.68788785 79.9266614,7.74210722 79.920637,7.79030293 L79.9567836,7.79030293 C80.0652239,7.45293292 80.2143272,7.13665329 80.4040978,6.84145453 C80.5938685,6.54625577 80.8167703,6.29021987 81.07281,6.07333916 C81.3288498,5.85645844 81.6165136,5.68476377 81.9358102,5.55825002 C82.2551069,5.43173627 82.595484,5.36848034 82.9569519,5.36848034 C83.0051476,5.36848034 83.0548487,5.36998643 83.1060566,5.37299867 C83.1572646,5.3760109 83.2039535,5.38052918 83.2461247,5.38655364 C83.2943204,5.39257811 83.3395032,5.39860248 83.3816745,5.40462695 L83.3816745,7.71800972 C83.3334788,7.71198526 83.2792594,7.70596088 83.2190148,7.69993642 C83.170819,7.69391195 83.1105753,7.68939367 83.0382817,7.68638144 C82.9659881,7.68336921 82.8876713,7.68186312 82.8033288,7.68186312 C82.5563257,7.68186312 82.303302,7.71951545 82.0442501,7.79482126 C81.7851981,7.87012706 81.5397048,7.98760236 81.307763,8.14725067 C81.0758211,8.30689897 80.8664741,8.51172769 80.6797157,8.76174297 C80.4929573,9.01175824 80.3453601,9.31147085 80.2369198,9.66088979 C80.0983571,10.1428469 80.0290768,10.6549187 80.0290768,11.1971205 L80.0290768,14.9382942 L77.6976207,14.9382942 L77.6976207,7.9077794 Z M85.3607011,11.938126 C85.6016797,12.2032024 85.8697644,12.4351408 86.1649631,12.6339481 C86.4179906,12.8086576 86.7146911,12.9683035 87.0550733,13.1128906 C87.3954555,13.2574778 87.7674606,13.3297703 88.1710998,13.3297703 C88.3518337,13.3297703 88.5205162,13.3116972 88.6771522,13.2755504 C88.8337883,13.2394036 88.9693367,13.182172 89.0838016,13.103854 C89.1982664,13.025536 89.288632,12.9276399 89.3549011,12.8101628 C89.4211702,12.6926858 89.4543043,12.5556313 89.4543043,12.3989952 C89.4543043,12.2303102 89.3835179,12.0812069 89.241943,11.9516809 C89.100368,11.8221549 88.9121063,11.7001614 88.6771522,11.5856965 C88.4421981,11.4712317 88.1756196,11.3567686 87.8774086,11.2423038 C87.5791976,11.127839 87.2749667,11.0028332 86.9647068,10.8672828 C86.6544469,10.7317323 86.350216,10.5796169 86.052005,10.4109319 C85.753794,10.2422469 85.4872154,10.0449486 85.2522613,9.81903119 C85.0173072,9.59311377 84.8290455,9.33406569 84.6874706,9.04187916 C84.5458957,8.74969264 84.4751093,8.41383378 84.4751093,8.03429252 C84.4751093,7.5643843 84.5745115,7.15623295 84.7733188,6.80982625 C84.9721261,6.46341954 85.2387047,6.17726178 85.5730625,5.95134436 C85.9074202,5.72542694 86.2959924,5.55674447 86.7387905,5.44529188 C87.1815886,5.33383929 87.6469715,5.27811383 88.1349531,5.27811383 C88.3458094,5.27811383 88.5747356,5.29166867 88.8217387,5.31877876 C89.0687417,5.34588885 89.315741,5.38805947 89.5627441,5.44529188 C89.8097471,5.50252429 90.0462038,5.58084115 90.2721212,5.68024482 C90.4980386,5.77964848 90.6983491,5.90164205 90.8730585,6.0462292 C91.047768,6.19081635 91.1878347,6.36251101 91.2932628,6.56131833 C91.398691,6.76012566 91.4514042,6.98603969 91.4514042,7.23906719 L91.4514042,8.2240622 L89.3729744,8.2240622 L89.3729744,7.75415633 C89.3729744,7.64571597 89.3353221,7.54932598 89.2600163,7.46498348 C89.1847104,7.38064098 89.0898266,7.31136068 88.9753617,7.2571405 C88.8608969,7.20292032 88.7343851,7.16225579 88.5958224,7.1351457 C88.4572597,7.10803561 88.3217113,7.09448077 88.1891731,7.09448077 C87.773485,7.09448077 87.4361201,7.16526717 87.1770681,7.30684208 C86.9180161,7.44841699 86.7884921,7.66077618 86.7884921,7.94392601 C86.7884921,8.13068441 86.8607846,8.29183641 87.0053717,8.42738686 C87.1499589,8.56293731 87.3397266,8.68794307 87.5746808,8.8024079 C87.8096349,8.91687272 88.0762134,9.02832364 88.3744244,9.136764 C88.6726354,9.24520436 88.9798785,9.36117356 89.2961629,9.48467508 C89.6124472,9.6081766 89.9196903,9.74974939 90.2179013,9.9093977 C90.5161123,10.069046 90.7826909,10.2588138 91.017645,10.4787067 C91.2525991,10.6985997 91.4423669,10.9546356 91.586954,11.2468221 C91.7315412,11.5390086 91.8038336,11.8808919 91.8038336,12.2724821 C91.8038336,12.7182924 91.7104558,13.1189133 91.5236974,13.4743567 C91.336939,13.8298001 91.0809032,14.1325249 90.7555821,14.3825402 C90.430261,14.6325554 90.0462071,14.8253354 89.603409,14.9608859 C89.1606109,15.0964363 88.6831792,15.1642105 88.1710998,15.1642105 C87.8457787,15.1642105 87.5415478,15.140113 87.258398,15.0919173 C86.9752481,15.0437216 86.7116818,14.9804657 86.467691,14.9021476 C86.2237001,14.8238296 85.9992922,14.7349701 85.7944604,14.6355664 C85.5896286,14.5361628 85.4058852,14.4322423 85.2432247,14.3238019 C84.857659,14.0767989 84.5263184,13.7936533 84.249193,13.4743567 L85.3607011,11.938126 Z" id="Matters" fill="#999999"></path>
                    </g>
                </g>
            </g>
        </g>
    </g>
</svg>